<?xml version="1.0" encoding="UTF-8"?>
<svg width="36px" height="40px" viewBox="0 0 36 40" version="1.1" xmlns="http://www.w3.org/2000/svg" xmlns:xlink="http://www.w3.org/1999/xlink">
    <!-- Generator: sketchtool 41.2 (35397) - http://www.bohemiancoding.com/sketch -->
    <title>F1E5B543-30B3-4BB8-89FE-C8E630EDF070</title>
    <desc>Created with sketchtool.</desc>
    <defs></defs>
    <g id="Page-1" stroke="none" stroke-width="1" fill="none" fill-rule="evenodd">
        <g id="LH-Binary" transform="translate(-563.000000, -1123.000000)">
            <g id="Block-new" transform="translate(0.000000, 711.000000)">
                <g id="Group" transform="translate(107.000000, 181.000000)">
                    <g id="Group-2" transform="translate(390.000000, 0.000000)">
                        <g id="Group-3" transform="translate(1.000000, 0.000000)">
                            <g id="android" transform="translate(65.000000, 231.000000)">
                                <g id="Layer_1">
                                    <g id="Group">
                                        <g transform="translate(0.000000, 1.925401)" id="Shape" fill="#B3CD4B">
                                            <path d="M27.9626553,8.08414081 L8.02179574,8.08414081 C8.28765957,5.21028794 11.0794213,0.0640003145 18.0586723,0.0640003145 C24.7056511,0.0640003145 27.6967915,5.21028794 27.9626553,8.08414081"></path>
                                            <path d="M2.70421277,25.4610349 L2.70421277,25.4610349 C1.24184681,25.4610349 0.0454212766,24.2580446 0.0454212766,22.7876547 L0.0454212766,13.4309011 C0.0454212766,11.9605112 1.24184681,10.757521 2.70421277,10.757521 C4.16657872,10.757521 5.36300426,11.9605112 5.36300426,13.4309011 L5.36300426,22.7877317 C5.36300426,24.2580446 4.16657872,25.4610349 2.70421277,25.4610349"></path>
                                            <path d="M33.2802383,25.4610349 L33.2802383,25.4610349 C31.8178723,25.4610349 30.6214468,24.2580446 30.6214468,22.7876547 L30.6214468,13.4309011 C30.6214468,11.9605112 31.8178723,10.757521 33.2802383,10.757521 C34.7426043,10.757521 35.9390298,11.9605112 35.9390298,13.4309011 L35.9390298,22.7877317 C35.9390298,24.2580446 34.7425277,25.4610349 33.2802383,25.4610349"></path>
                                            <path d="M25.3038638,28.8027601 L25.3038638,35.4862105 C25.3038638,36.6224279 24.4397872,37.4912456 23.3097702,37.4912456 C22.1797532,37.4912456 21.3156766,36.6224279 21.3156766,35.4862105 L21.3156766,28.8027601 L14.6686979,28.8027601 L14.6686979,35.4862105 C14.6686979,36.6224279 13.7381362,37.4912456 12.6746043,37.4912456 C11.6110723,37.4912456 10.6805106,36.6224279 10.6805106,35.4862105 L10.6805106,28.8027601 L8.02171915,28.8027601 L8.02171915,10.757521 L27.9625787,10.757521 L27.9625787,28.8027601 L25.3038638,28.8027601 L25.3038638,28.8027601 Z"></path>
                                        </g>
                                        <g transform="translate(13.327660, 5.314106)" id="Shape" fill="#FFFFFF">
                                            <path d="M2.67051064,1.35371062 C2.67051064,0.618515675 2.07229787,0.0170205409 1.34111489,0.0170205409 C0.609931915,0.0170205409 0.0117191489,0.618515675 0.0117191489,1.35371062 C0.0117191489,2.08890557 0.609931915,2.69040071 1.34111489,2.69040071 C2.07229787,2.69040071 2.67051064,2.08890557 2.67051064,1.35371062"></path>
                                            <path d="M9.31741277,1.35371062 C9.31741277,0.618515675 8.7192,0.0170205409 7.98801702,0.0170205409 C7.25683404,0.0170205409 6.65862128,0.618515675 6.65862128,1.35371062 C6.65862128,2.08890557 7.25683404,2.69040071 7.98801702,2.69040071 C8.7192,2.69040071 9.31741277,2.08890557 9.31741277,1.35371062"></path>
                                        </g>
                                        <g transform="translate(10.646809, 0.000000)" id="Shape" fill="#B3CD4B">
                                            <path d="M1.96138723,3.99443599 C1.6955234,3.99443599 1.49606809,3.86073618 1.36317447,3.59341357 L0.10026383,0.920033402 C-0.032706383,0.585860881 0.10026383,0.184838453 0.432612766,0.0512156548 C0.764961702,-0.0824841598 1.16379574,0.0512156548 1.29668936,0.385388175 L2.5596,3.05876834 C2.69257021,3.39294086 2.5596,3.79396329 2.22725106,3.92758609 C2.16084255,3.92758609 2.09435745,3.99443599 1.96138723,3.99443599 Z"></path>
                                            <path d="M12.6629617,3.99443599 C12.5964766,3.99443599 12.463583,3.99443599 12.3970979,3.92758609 C12.0647489,3.79388627 11.9317787,3.39294086 12.0647489,3.05876834 L13.3276596,0.385388175 C13.4606298,0.0512156548 13.8593872,-0.0824841598 14.1917362,0.0512156548 C14.5240851,0.184915469 14.6570553,0.585860881 14.5240851,0.920033402 L13.2611745,3.59341357 C13.194766,3.86073618 12.9289021,3.99443599 12.6629617,3.99443599 Z"></path>
                                        </g>
                                    </g>
                                </g>
                            </g>
                        </g>
                    </g>
                </g>
            </g>
        </g>
    </g>
</svg>