<?xml version="1.0" encoding="UTF-8"?>
<svg width="29px" height="35px" viewBox="0 0 29 35" version="1.1" xmlns="http://www.w3.org/2000/svg" xmlns:xlink="http://www.w3.org/1999/xlink">
    <!-- Generator: sketchtool 41.2 (35397) - http://www.bohemiancoding.com/sketch -->
    <title>123F79AA-E468-41EF-9140-F37879599F3E</title>
    <desc>Created with sketchtool.</desc>
    <defs></defs>
    <g id="Page-1" stroke="none" stroke-width="1" fill="none" fill-rule="evenodd">
        <g id="LH-Binary" transform="translate(-758.000000, -1123.000000)" fill="#030104">
            <g id="Block-new" transform="translate(0.000000, 711.000000)">
                <g id="Group" transform="translate(107.000000, 181.000000)">
                    <g id="Group-2" transform="translate(390.000000, 0.000000)">
                        <g id="Group-3" transform="translate(1.000000, 0.000000)">
                            <g id="iOS" transform="translate(260.000000, 231.000000)">
                                <g id="Capa_1">
                                    <g id="Group">
                                        <path d="M24.17,18.3325 C24.125,13.96 27.735,11.8675 27.895,11.7625 C25.8675,8.8 22.7125,8.3925 21.585,8.3475 C18.9025,8.0725 16.345,9.9275 14.98,9.9275 C13.62,9.9275 11.515,8.385 9.2875,8.425 C6.3575,8.47 3.66,10.13 2.15,12.75 C-0.8925,18.03 1.37,25.85 4.335,30.1375 C5.785,32.2325 7.515,34.585 9.7825,34.5025 C11.9675,34.415 12.7925,33.0875 15.435,33.0875 C18.0775,33.0875 18.82,34.5025 21.13,34.46 C23.4825,34.415 24.97,32.3225 26.4075,30.2225 C28.0725,27.79 28.7575,25.4325 28.8,25.315 C28.745,25.285 24.2175,23.5525 24.17,18.3325 Z" id="Shape"></path>
                                        <path d="M19.825,5.51 C21.0275,4.0525 21.8425,2.0225 21.62,0 C19.8825,0.07 17.785,1.1525 16.5375,2.6125 C15.42,3.905 14.4475,5.9675 14.7075,7.95 C16.6425,8.1025 18.6225,6.965 19.825,5.51 Z" id="Shape"></path>
                                    </g>
                                </g>
                            </g>
                        </g>
                    </g>
                </g>
            </g>
        </g>
    </g>
</svg>